<?xml version="1.0" encoding="utf-8"?>
<!-- Generator: Adobe Illustrator 27.5.0, SVG Export Plug-In . SVG Version: 6.00 Build 0)  -->
<svg version="1.1" id="Layer_1" xmlns="http://www.w3.org/2000/svg" xmlns:xlink="http://www.w3.org/1999/xlink" x="0px" y="0px"
	 viewBox="0 0 2746.79 2000" style="enable-background:new 0 0 2746.79 2000;" xml:space="preserve">
<g>
	<g>
		<rect x="0" y="0" style="fill:#FFFFFF;" width="2746.79" height="2000"/>
		<linearGradient id="SVGID_1_" gradientUnits="userSpaceOnUse" x1="221.7383" y1="982.2831" x2="2612.2485" y2="982.2831">
			<stop  offset="0" style="stop-color:#77C3E1"/>
			<stop  offset="1" style="stop-color:#F5F5F5"/>
		</linearGradient>
		<path style="fill:url(#SVGID_1_);" d="M426.809,1817.228c-257.333-69.691-245.357-396.116-112.667-565.417
			s172.674-316.079,108.674-584.227s397.374-751.69,990.168-392.047c537.467,326.077,929.798,292.826,1138.89,724.463
			c195.998,404.605-131.939,817.228-318.939,817.228C1861.936,1817.228,426.809,1817.228,426.809,1817.228z"/>
		<g>
			<path style="fill:#1D6E87;" d="M2562.933,1809.964H247c-4.037,0-7.34,3.108-7.441,7.007c-0.001,0.049-0.002,0.098-0.003,0.146
				c-0.105,4.043,3.255,7.376,7.441,7.376h2315.936c4.349,0,7.876-3.251,7.876-7.264
				C2570.809,1813.215,2567.281,1809.964,2562.933,1809.964z"/>
		</g>
	</g>
	<g>
		<g>
			<g>
				<path style="fill:#6090FE;" d="M1777.726,1500.614H856.78c-21.553,0-39.024-17.472-39.024-39.024V382.634
					c0-21.553,17.472-39.024,39.024-39.024h920.946c21.552,0,39.024,17.472,39.024,39.024v1078.955
					C1816.75,1483.142,1799.278,1500.614,1777.726,1500.614z"/>
				<rect x="835.849" y="554.273" style="fill:#BCBBE8;" width="962.808" height="905.868"/>
			</g>
			<path style="fill:#CDC9ED;" d="M835.849,1460.142V381.915c0-11.973,9.707-21.68,21.68-21.68h919.448
				c11.973,0,21.68,9.706,21.68,21.68v1078.227c0,11.974-9.708,21.68-21.68,21.68H857.529
				C845.556,1481.822,835.849,1472.116,835.849,1460.142z"/>
			<path style="fill:#2D6163;" d="M1776.04,360.236H858.467c-12.472,0-22.618,9.322-22.618,20.781v77.308h962.808v-77.308
				C1798.657,369.558,1788.511,360.236,1776.04,360.236z"/>
			<polygon style="fill:#E34830;" points="866.091,398.358 907.267,420.202 907.267,376.515 			"/>
			<rect x="835.849" y="435.604" style="fill:#E4E3ED;" width="962.808" height="111.465"/>
			<path style="fill:#88B6B8;" d="M1712.544,515.357H921.963c-8.358,0-15.133-6.775-15.133-15.133l0,0
				c0-8.358,6.775-15.133,15.133-15.133h790.581c8.358,0,15.133,6.775,15.133,15.133l0,0
				C1727.677,508.581,1720.901,515.357,1712.544,515.357z"/>
			<g>
				<g>
					<rect x="982.412" y="1094.927" style="fill:#E4E3ED;" width="157.419" height="91.007"/>
					<rect x="982.412" y="989.55" style="fill:#E4E3ED;" width="157.419" height="91.007"/>
					<rect x="982.412" y="1305.681" style="fill:#E4E3ED;" width="157.419" height="91.007"/>
					<rect x="982.412" y="1200.303" style="fill:#E4E3ED;" width="157.419" height="91.008"/>
					<rect x="982.412" y="704.953" style="fill:#E4E3ED;" width="157.419" height="72.247"/>
					<rect x="982.412" y="791.569" style="fill:#E4E3ED;" width="157.419" height="78.234"/>
					<rect x="987.839" y="798.753" style="fill:#E4E3ED;" width="146.562" height="63.864"/>
					<rect x="982.412" y="884.173" style="fill:#E4E3ED;" width="157.419" height="91.008"/>
					<rect x="1487.237" y="1200.303" style="fill:#E4E3ED;" width="157.419" height="91.008"/>
					<rect x="1150.687" y="1305.681" style="fill:#E4E3ED;" width="157.419" height="91.007"/>
					<rect x="1487.237" y="1094.927" style="fill:#E4E3ED;" width="157.419" height="91.007"/>
					<rect x="1487.237" y="884.173" style="fill:#E4E3ED;" width="157.419" height="91.008"/>
					<rect x="1487.237" y="989.55" style="fill:#E4E3ED;" width="157.419" height="91.007"/>
					<rect x="1318.962" y="1305.681" style="fill:#E4E3ED;" width="157.419" height="91.007"/>
					<rect x="1487.237" y="1305.681" style="fill:#E4E3ED;" width="157.419" height="91.007"/>
					<rect x="982.412" y="618.336" style="fill:#E4E3ED;" width="157.419" height="72.248"/>
					<rect x="1150.687" y="1200.303" style="fill:#E4E3ED;" width="157.419" height="91.008"/>
					<rect x="1150.687" y="1094.927" style="fill:#E4E3ED;" width="157.419" height="91.007"/>
					<rect x="1487.237" y="791.569" style="fill:#E4E3ED;" width="157.419" height="78.234"/>
					<rect x="1150.687" y="618.336" style="fill:#E4E3ED;" width="157.419" height="72.248"/>
					<rect x="1150.687" y="704.953" style="fill:#E4E3ED;" width="157.419" height="72.247"/>
					<rect x="1150.687" y="884.173" style="fill:#E4E3ED;" width="157.419" height="91.008"/>
					<rect x="1318.962" y="1200.303" style="fill:#E4E3ED;" width="157.419" height="91.008"/>
					<rect x="1150.687" y="791.569" style="fill:#E4E3ED;" width="157.419" height="78.234"/>
					<rect x="1150.687" y="989.55" style="fill:#E4E3ED;" width="157.419" height="91.007"/>
					<rect x="1318.962" y="704.953" style="fill:#E4E3ED;" width="157.419" height="72.247"/>
					<rect x="1318.962" y="791.569" style="fill:#E4E3ED;" width="157.419" height="78.234"/>
					<rect x="1318.962" y="1094.927" style="fill:#E4E3ED;" width="157.419" height="91.007"/>
					<rect x="1318.962" y="618.336" style="fill:#E4E3ED;" width="157.419" height="72.248"/>
					<rect x="1318.962" y="884.173" style="fill:#E4E3ED;" width="157.419" height="91.008"/>
					<rect x="1318.962" y="989.55" style="fill:#E4E3ED;" width="157.419" height="91.007"/>
					<rect x="1655.512" y="1305.681" style="fill:#E4E3ED;" width="137.717" height="91.007"/>
					<rect x="1150.687" y="1411.057" style="fill:#E4E3ED;" width="157.419" height="42.238"/>
					<rect x="1318.962" y="1411.057" style="fill:#E4E3ED;" width="157.419" height="42.238"/>
					<rect x="1487.237" y="1411.057" style="fill:#E4E3ED;" width="157.419" height="42.238"/>
					<rect x="841.277" y="1411.057" style="fill:#E4E3ED;" width="130.278" height="42.238"/>
					<rect x="841.277" y="1305.681" style="fill:#E4E3ED;" width="130.278" height="91.007"/>
					<rect x="982.412" y="1411.057" style="fill:#E4E3ED;" width="157.419" height="42.238"/>
					<rect x="1655.512" y="1411.057" style="fill:#E4E3ED;" width="137.717" height="42.238"/>
					<rect x="1655.512" y="1200.303" style="fill:#E4E3ED;" width="137.717" height="91.008"/>
					<rect x="1655.512" y="791.569" style="fill:#E4E3ED;" width="137.717" height="78.234"/>
					<rect x="1487.237" y="704.953" style="fill:#E4E3ED;" width="157.419" height="72.247"/>
					<rect x="1492.664" y="712.137" style="fill:#E4E3ED;" width="146.562" height="57.876"/>
					<rect x="1655.512" y="884.173" style="fill:#E4E3ED;" width="137.717" height="91.008"/>
					<rect x="1655.512" y="704.953" style="fill:#E4E3ED;" width="137.717" height="72.247"/>
					<rect x="1655.512" y="989.55" style="fill:#E4E3ED;" width="137.717" height="91.007"/>
					<rect x="1655.512" y="1094.927" style="fill:#E4E3ED;" width="137.717" height="91.007"/>
					<rect x="841.277" y="1200.303" style="fill:#E4E3ED;" width="130.278" height="91.008"/>
					<rect x="1655.512" y="618.336" style="fill:#E4E3ED;" width="137.717" height="72.248"/>
					<rect x="1487.237" y="618.336" style="fill:#E4E3ED;" width="157.419" height="72.248"/>
					<rect x="841.277" y="791.569" style="fill:#E4E3ED;" width="130.278" height="78.234"/>
					<rect x="841.277" y="559.261" style="fill:#E4E3ED;" width="957.38" height="44.705"/>
					<rect x="841.277" y="1094.927" style="fill:#E4E3ED;" width="130.278" height="91.007"/>
					<rect x="841.277" y="989.55" style="fill:#E4E3ED;" width="130.278" height="91.007"/>
					<rect x="841.277" y="884.173" style="fill:#E4E3ED;" width="130.278" height="91.008"/>
					<rect x="841.277" y="618.336" style="fill:#E4E3ED;" width="130.278" height="72.248"/>
					<rect x="841.277" y="704.953" style="fill:#E4E3ED;" width="130.278" height="72.247"/>
				</g>
			</g>
			<path style="fill:#E4E3ED;" d="M1654.591,424.268h-31.013c-2.022,0-3.662-1.64-3.662-3.662l0,0c0-2.022,1.64-3.662,3.662-3.662
				h31.013c2.022,0,3.661,1.64,3.661,3.662l0,0C1658.252,422.628,1656.613,424.268,1654.591,424.268z"/>
			<g>
				<rect x="1680.78" y="396.844" style="fill:#E4E3ED;" width="35.486" height="27.424"/>
				
					<rect x="1688.19" y="396.192" transform="matrix(-1.836970e-16 1 -1 -1.836970e-16 2109.0784 -1287.9668)" style="fill:#6F6D7D;" width="20.665" height="28.728"/>
			</g>
			<g>
				<path style="fill:#E4E3ED;" d="M1760.952,424.268c-0.107-0.124-9.583-11.224-9.684-11.352h-0.119
					c-0.73,1.022-8.992,11.225-9.095,11.352h-5.906l12.165-13.727l-11.692-13.405h5.966c6.395,7.735,7.541,9.073,8.917,10.95h0.176
					c2.079-2.978,3.651-4.593,9.037-10.95h5.905l-12.105,13.204l12.4,13.929H1760.952z"/>
			</g>
		</g>
		<g>
			<path style="fill:#FF3B3B;" d="M683.301,800.237c-2.338-26.809-5.776-65.516-27.583-83.657
				c-17.651-14.682-39.449-15.957-60.598-6.132c-59.929,27.834-30.441,70.44-105.889,132.355
				c-23.442,19.238-31.544,23.935-48.811,48.922c-24.161,34.97-23.477,74.727,2.208,97.778
				c26.646,23.914,101.503,41.101,128.33,39.191c77.852-5.545,100.93-87.052,106.399-118.364
				C682.823,879.008,686.096,832.318,683.301,800.237z"/>
			<path style="fill:#F7A491;" d="M541.18,952.105l-39.446-19.979c0,0-41.714,101.708-46.876,131.405
				c-1.872,10.786,5.716,121.825,8.865,144.224c-1.052,43.24,14.292,53.101,22.527,66.432c0,0,17.594,9.087,18.297,7.758
				c0.884-1.621-0.839-3.847-3.558-5.752c-1.055-0.722-2.465-1.085-3.606-1.83c-1.096-0.733-2.167-2.131-3.149-2.793
				c-2.344-1.592-4.046-2.137-4.046-2.137s-1.128-2.841-2.871-5.809c-1.249-2.156-3.178-4.543-3.454-5.168
				c-1.575-3.756,0.26-2.465,0.26-2.465c1.796,2.937,11.72,14.917,11.72,14.917s18.902,14.633,19.175,13.133
				c0.104-0.713-0.412-3.206-3.454-7.113c-0.82-1.047-3.098-2.356-4.226-3.61c-0.868-0.947-1.641-2.273-2.744-3.366
				c-1.163-1.196-2.871-1.92-4.049-3.143c-1.797-1.818-2.506-4.269-3.641-5.773c-4.613-6.005-6.292-10.636-4.363-8.718
				c2.861,2.877,7.186,14.579,20.331,23.92c2.227,1.519,3.726,2.082,3.948,1.15c0.174-0.716,0.089-3.443-1.565-5.853
				c-1.144-1.64-3.507-2.609-5.038-4.701c-0.893-1.219-1.407-2.886-2.319-4.203c-3.641-5.239-5.263-2.495-8.656-22.92
				c1.879,0.833,3.561,2.11,4.363,2.772c1.445,1.243,8.339,13.096,10.836,10.523c2.481-2.599-11.771-29.952-11.771-29.952
				l-11.869-15.511c2.668-105.37,5.893-130.598,6.578-131.462L541.18,952.105z"/>
			<path style="fill:#F7A491;" d="M611.466,1288.617l25.366,224.328c0,0-12.398,47.439-10.902,60.916
				c1.496,13.478,27.568,190.271,27.568,190.271l-1.175,9.711l-0.634,28.768l97.461,0.724c0,0-20.54-9.106-49.277-27.102
				c-2.12-1.333-9.062-5.728-10.253-14.19c-7.674-54.492,9.552-236.102,9.552-236.102l11.954-236.6L611.466,1288.617z"/>
			<path style="fill:#032B9C;" d="M643.897,1745.522l52.49-3.078c0,0,3.076-202.868,10.246-246.927
				c7.173-44.057,11.352-191.207,4.1-247.95c-6.242-48.826-29.633-126.915-29.633-126.915l-81.02,16.26l-16.396,4.097
				l44.058,369.879c0,0-4.081,24.981-6.131,50.593C619.561,1587.096,643.897,1745.522,643.897,1745.522z"/>
			<path style="fill:#F7A491;" d="M534.656,1329.924c-5.468,1.365-13.88,193.894-18.408,202.428
				c-28.695,54.098-35.517,218.57-35.517,218.57l-11.837,23.032l2.715,22.191c0,0,21.418,12.152,36.445,3.957l-2.329-22.224
				l-1.774-29.689l72.403-204.91l39.616-209.01L534.656,1329.924z"/>
			<path style="fill:#FFFFFF;" d="M651.219,1810.004h100.613c3.723-0.333,4.629-3.343,3.339-5.196
				c-2.658-3.819-22.283-12.99-35.476-19.075c-23.138,2.413-63.816-7.029-67.466-12.342
				C650.123,1784.03,649.15,1809.55,651.219,1810.004z"/>
			<path style="fill:#FFFFFF;" d="M468.952,1773.894c0,0,8.244,17.174,17.907,16.448c9.663-0.724,18.807-12.585,18.807-12.585
				s3.625,16.665,1.933,25.846c-1.689,9.179-15.458,18.6-24.878,14.494C473.298,1813.991,460.498,1792.733,468.952,1773.894z"/>
			<path style="fill:#0037D3;" d="M577.359,1096.062c0,0-2.237,17.923-4.61,21.516c-6.371,9.656-23.902,39.994-33.682,63.652
				c-8.814,21.318-11.653,38.807-15.046,58.53c-10.573,61.47-7.17,248.975-7.17,248.975s-18.956,40.471-26.642,94.261
				c-7.683,53.792-13.339,142.798-13.339,142.798l39.189,9.99l79.683-238.852c0,0,37.89-209.151,50.186-236.815
				c12.293-27.662,35.428-139.978,35.428-139.978L577.359,1096.062z"/>
			<path style="fill:#F47458;" d="M517.065,1450.064c0.013,0.033,0.019,0.032,0.032-0.003L517.065,1450.064z"/>
			<path style="fill:#F7A491;" d="M918.724,687.247c-0.89-8.268-23.744-14.928-30.463-16.908c-6.723-1.984-2.364-0.371-9.822,2.026
				c-0.906,0.291-23.487,34.715-23.487,34.715c-7.123,11.214-72.441,111.04-94.445,126.196
				c-22.473,15.479-112.029,42.478-112.029,42.478l-4.097,57.168c0,0,123.644-42.381,150.106-65.103
				c21.915-18.815,65.603-109.415,86.432-142.806l0.022,0.014C886.363,718.037,919.611,695.513,918.724,687.247z"/>
			<path style="fill:#FFFFFF;" d="M603.428,859.046c-55.031,0.783-76.185-7.713-118.86,92.683
				c-7.423,17.462-11.666,30.066-11.78,30.373c0,0,37.557,16.875,51.007,22.291c0,0,13.218-40.447,18.668-35.755
				c12.293,10.592,33.042,132.263,29.969,148.872c0,0,62.882,12.502,109.374,2.753c0,0,6.66-119.731,8.966-125.148
				c2.306-5.416,16.39-29.117,4.867-55.946c-2.06-4.791-7.186-19.129-3.587-20.114c28.176-7.702,70.698-28.884,70.698-28.884
				l-20.109-51.028c0,0-62.242,14.188-83.375,16.849c-18.417,2.319-36.996,2.814-55.534,3.048
				C603.628,859.043,603.529,859.045,603.428,859.046z"/>
			<path style="fill:#F7A491;" d="M605.557,815.431c0,0-1.527,34.821-5.953,47.642c-4.426,12.819,9.299,59.324,37.057,66.107
				c27.754,6.785,0.488-55.243,0.947-68.734c0.459-13.491,9.363-53.463,9.363-53.463L605.557,815.431z"/>
			<path style="fill:#F47458;" d="M642.766,827.102c2.173-10.999,4.204-20.117,4.204-20.117l-41.413,8.447
				c0,0-0.313,7.121-1.065,16.106C620.017,838.717,633.283,835.506,642.766,827.102z"/>
			<path style="fill:#F7A491;" d="M613.902,720.319c0,0-16.269,4.532-25.644,20.542c-9.378,16.011-14.058,61.993,20.464,81.613
				c34.522,19.621,59.026-11.815,57.984-41.225C665.66,751.841,657.397,712.939,613.902,720.319z"/>
			<path style="fill:#F7A491;" d="M673.898,771.67c-2.497,7.233-7.94,11.918-12.154,10.464c-4.211-1.456-5.602-8.499-3.105-15.734
				c2.5-7.233,7.94-11.919,12.154-10.463C675.007,757.391,676.401,764.435,673.898,771.67z"/>
			<path style="fill:#FF3B3B;" d="M618.788,719.109c0,0-18.611,48.09-36.826,53.217c-18.212,5.126-16.758,28.783-16.758,28.783
				s-2.332-54.679,14.305-68.084C596.147,719.621,618.788,719.109,618.788,719.109z"/>
			<path style="fill:#F7A491;" d="M589.776,781.736c2.807,7.518,0.966,15.151-4.116,17.05c-5.082,1.898-11.479-2.657-14.286-10.175
				c-2.807-7.517-0.969-15.15,4.113-17.049C580.568,769.665,586.965,774.217,589.776,781.736z"/>
			<path style="fill:#184655;" d="M1033.262,509.562L881.496,701.707l-0.133,0.168c-2.829,3.583-8.032,4.195-11.615,1.362
				c-3.587-2.831-4.198-8.032-1.366-11.618c0.063-0.081,0.152-0.185,0.219-0.264l159.728-185.758l0.054-0.062
				c1.137-1.326,3.137-1.477,4.464-0.337C1034.133,506.31,1034.308,508.236,1033.262,509.562z"/>
			<path style="fill:#F47458;" d="M902.505,675.109l-21.009,26.598l-0.133,0.168c-2.661,3.37-7.417,4.111-10.956,1.834
				c0.485,0.752,1.096,1.44,1.838,2.026c3.583,2.833,8.786,2.221,11.618-1.364l0.13-0.168l21.871-27.686
				C904.761,676.026,903.63,675.556,902.505,675.109z"/>
			<path style="fill:#F7A491;" d="M901.758,663.275c0,0,22.445,19.895,16.802,28.22c-6.238,9.197-14.207,14.156-14.638,11.392
				c-0.425-2.766,4.819-16.177,4.819-16.177s-7.104-8.997-8.497-13.854C898.855,667.998,897.813,662.979,901.758,663.275z"/>
			<path style="fill:#F7A491;" d="M891.264,673.893c0,0-14.124,6.08-14.926,4.334c-0.805-1.743,2.1-5.861,2.1-5.861
				s19.01-14.434,19.701-9.255C898.833,668.292,891.264,673.893,891.264,673.893z"/>
			<path style="fill:#F7A491;" d="M916.227,670.341c0,0-12.204-13.839-12.68-9.221c-0.577,5.571,9.603,21.708,14.6,21.708
				C923.144,682.827,923.144,678.026,916.227,670.341z"/>
		</g>
		<path style="fill:#FF5345;" d="M1535.019,1207.888c7.633,2.13,19.777,10.308,30.333,19.185
			c11.877-14.302,41.798-49.771,61.899-65.107c-26.881,31.201-47.726,56.94-60.454,89.609
			C1558.867,1230.076,1544.934,1215.783,1535.019,1207.888z"/>
		<path style="fill:#FF5345;" d="M1024.953,702.44c7.633,2.13,19.777,10.308,30.333,19.185
			c11.877-14.302,41.797-49.771,61.898-65.107c-26.881,31.201-47.726,56.94-60.455,89.609
			C1048.801,724.627,1034.868,710.335,1024.953,702.44z"/>
		<path style="fill:#FF5345;" d="M1366.869,1007.068c7.633,2.13,19.777,10.308,30.333,19.185
			c11.877-14.302,41.797-49.771,61.898-65.107c-26.88,31.201-47.726,56.94-60.455,89.609
			C1390.716,1029.256,1376.784,1014.963,1366.869,1007.068z"/>
		<path style="fill:#FF5345;" d="M859.748,1007.068c7.633,2.13,19.777,10.308,30.333,19.185
			c11.877-14.302,41.797-49.771,61.898-65.107c-26.881,31.201-47.726,56.94-60.455,89.609
			C883.595,1029.256,869.663,1014.963,859.748,1007.068z"/>
		<path style="fill:#FF5345;" d="M1519.83,797.543c7.633,2.13,19.777,10.308,30.333,19.185
			c11.877-14.302,41.797-49.771,61.898-65.107c-26.881,31.201-47.726,56.94-60.455,89.609
			C1543.678,819.731,1529.745,805.438,1519.83,797.543z"/>
		<path style="fill:#FF5345;" d="M1024.953,1323.711c7.633,2.13,19.777,10.308,30.333,19.185
			c11.877-14.302,41.797-49.771,61.899-65.107c-26.881,31.2-47.726,56.94-60.455,89.609
			C1048.801,1345.899,1034.868,1331.606,1024.953,1323.711z"/>
		<path style="fill:#FF5345;" d="M1202.462,1323.711c7.633,2.13,19.777,10.308,30.333,19.185
			c11.877-14.302,41.797-49.771,61.898-65.107c-26.881,31.2-47.726,56.94-60.454,89.609
			C1226.309,1345.899,1212.377,1331.606,1202.462,1323.711z"/>
		<g>
			<g>
				<g>
					<path style="fill:#F7A491;" d="M2247.122,600.118c4.475,3.879-19.094,49.078-19.094,49.078l-0.298-14.47
						C2227.729,634.725,2242.646,596.24,2247.122,600.118z"/>
					<g>
						<path style="fill:#F7A491;" d="M1883.295,769.352c0,0-32.874,11.673-31.997,21.704c0.461,5.272,2.908,13.724,2.908,13.724
							l-16.036,48.629l36.92,7.309c0,0,5.346-35.106,12.978-44.154c1.365-1.618,4.135-1.344,6.415-3.282
							c7.758-6.597,18.064-16.383,19.019-19.765C1917.712,778.596,1883.295,769.352,1883.295,769.352z"/>
						<path style="fill:#F7A491;" d="M2235.645,616.361c0,0-3.724,23.532-7.581,32.834c-2.026,4.889-11.903,25.406-11.903,25.406
							l-3.459,50.915l-38.154-4.452c0,0,12.26-36.855,7.708-47.782c-3.583-8.603-6.02-26.725-5.88-31.271
							C2176.855,626.515,2235.645,616.361,2235.645,616.361z"/>
						<path style="fill:#07345A;" d="M1982.742,813.85c0,0,19.834-20.912,35.787,4.526c0,0,12.288-6.898,20.911,5.39
							c0,0,22.205-6.683,27.595,26.517c0,0,11.426-2.156,12.935,11.425c1.51,13.582-5.39,22.637-5.39,22.637s6.419,4.813,3.504,17.3
							c-2.48,10.618-11.264,12.235-11.264,12.235s-2.372,17.894-10.133,23.284c-7.761,5.389-18.325,2.802-18.325,2.802
							s-2.803,9.701-11.858,8.84c-9.054-0.863-20.264-9.487-30.397-5.606s-36.433-0.215-36.433-0.215s-29.536-13.151-20.697-43.333
							c0,0-15.522-14.013-1.94-30.829c0,0-9.918-26.301,9.7-41.823C1966.357,811.478,1982.742,813.85,1982.742,813.85z"/>
						<path style="fill:#F7A491;" d="M2203.167,1552.422c0,0,34.194-3.906,39.86-6.689c5.666-2.784,34.37,24.632,28.677,38.382
							c-3.209,7.75-13.351,6.76-13.351,6.76l-8.198-8.005l-43.391,9.043L2203.167,1552.422z"/>
						<path style="fill:#F7A491;" d="M1900.776,1722.131c0,0-3.512,34.236-2.008,40.367c1.505,6.13-31.425,28.293-43.635,19.786
							c-6.883-4.795-3.742-14.489-3.742-14.489l9.575-6.293l0.464-44.321L1900.776,1722.131z"/>
						<path style="fill:#507EEF;" d="M1898.608,1760.925c0,0-16.229,4.195-23.901,4.937c-9.905,0.959-21.34,0.553-21.34,0.553
							s-20.045,8.817-26.406,12.381c-14.156,7.928-29.979,16.73-34.22,23.989c-1.36,2.33,1.429,9.287,6.615,10.056
							c9.181,1.362,94.681-1.138,105.836-5.099C1921.204,1802.056,1898.608,1760.925,1898.608,1760.925z"/>
						<path style="fill:#B75742;" d="M1877.526,1281.922c1.94-5.425,3.798-10.443,5.594-15.162
							c22.199,4.845,47.273,10.173,73.065,15.67l3.141,94.54c-0.015-7.302-26.643,141.393-26.643,141.393
							s-12.011,87.438-22.852,216.173c-6.975,10.711-41.351,10.11-53.117,9.242c-6.491-106.175,3.726-185.714,0.835-205.126
							C1855.885,1527.485,1854.388,1347.019,1877.526,1281.922z"/>
						<path style="fill:#F47458;" d="M2075.659,1309.261c-6.035,65.536-16.014,164.743-17.834,198.122
							c42.368,6.109,142.475,36.218,161.138,36.185c7.061,15.826,10.974,35.033,6.075,50.815
							c-0.967,3.116-197.475,9.374-248.2-22.993c-13.231-8.442-17.309-98.963-17.512-194.421l-3.141-94.54
							C1999.157,1291.592,2038.673,1300.575,2075.659,1309.261z"/>
						<path style="fill:#FFFFFF;" d="M1934.536,973.465l48.222,7.268c0,0,36.345,0.567,46.049,0.658
							c0.841,0.007,38.671,184.538,47.868,253.984s2.072,81.741,2.072,81.741s-64.137,14.425-111.587,10.22
							c-49.34-4.372-104.855-31.011-104.855-31.011s43.507-129.758,51.869-171.425
							C1922.534,1083.232,1934.536,973.465,1934.536,973.465z"/>
						<path style="fill:#032B9C;" d="M1842.273,836.105c0,0-52.773,148.491-47.585,159.016
							c7.545,15.307,109.641,42.961,109.641,42.961s-38.6,153.612-55.659,212.251c-1.718,5.905-9.322,44.05-9.322,47.769
							c0,8.246,35.896,18.713,40.157,18.093c3.814-0.556,41.525-160.588,61.52-239.628c6.775-26.783,12.006-53.585,27.906-76.178
							l13.905-19.756c0,0-27.97-10.078-40.469-14.154c-18.61-6.067-83.685-17.899-83.685-17.899s19.69-98.154,21.48-107.702
							C1880.639,838.336,1847.447,826.404,1842.273,836.105z"/>
						<path style="fill:#032B9C;" d="M2028.807,981.396c0,0,68.557-101.505,87.642-137.533
							c15.628-29.502,50.892-118.086,52.209-122.917c1.294-4.742,40.924-9.117,53.105-3.58
							c3.282,1.492-32.42,119.365-47.137,157.823c-13.593,35.519-61.896,138.964-61.896,138.964s-27.849,63.545-23.506,112.647
							c7.213,81.553,21.524,199.076,18.04,202.596c-21.625,13.621-89.678,13.132-94.933,4.67
							C1954.318,1240.639,2028.807,981.396,2028.807,981.396z"/>
						<path style="fill:#F7A491;" d="M1986.093,955.822l-3.59,26.636c0,0-8.042,38.374,2.304,45.772
							c10.347,7.398,44.002-46.866,44.002-46.866l-3.554-67.495L1986.093,955.822z"/>
						<path style="fill:#F47458;" d="M2026.403,935.743c-8.547,23.021-28.904,37.173-43.354,42.662l3.044-22.583l39.161-41.953
							L2026.403,935.743z"/>
						<path style="fill:#07345A;" d="M2080.322,867.998c0,10.28-5.846,18.613-13.058,18.613c-7.211,0-13.057-8.333-13.057-18.613
							c0-10.28,5.846-18.614,13.057-18.614C2074.476,849.385,2080.322,857.718,2080.322,867.998z"/>
						<path style="fill:#07345A;" d="M2041.15,827.99c0,5.908-7.112,10.697-15.886,10.697s-15.887-4.789-15.887-10.697
							c0-5.908,7.113-10.698,15.887-10.698S2041.15,822.082,2041.15,827.99z"/>
						<path style="fill:#F7A491;" d="M2001.344,842.961c-20.999-7.228-43.381,6.721-46.585,28.366
							c-1.393,9.408-2.654,21.238-2.889,34.174c-0.564,31.11,15.54,61.388,29.667,61.388s53.17-20.14,54.583-64.305
							C2036.993,875.315,2023.378,850.546,2001.344,842.961z"/>
						<path style="fill:#F7A491;" d="M2025.711,906.076c0,6.863,4.55,12.425,10.162,12.425c5.611,0,10.161-5.562,10.161-12.425
							c0-6.864-4.55-12.426-10.161-12.426C2030.26,893.65,2025.711,899.212,2025.711,906.076z"/>
						<path style="fill:#07345A;" d="M1940.14,827.481c-14.592,11.56-19.706,29.125-11.422,39.232
							c8.284,10.107,26.829,8.929,41.421-2.63c14.593-11.56,19.707-29.125,11.423-39.232
							C1973.278,814.744,1954.732,815.921,1940.14,827.481z"/>
						<ellipse style="fill:#07345A;" cx="1991.84" cy="836.96" rx="13.548" ry="9.097"/>
						<ellipse style="fill:#07345A;" cx="1949.543" cy="875.619" rx="11.565" ry="11.696"/>
						<path style="fill:#507EEF;" d="M2241.526,1546.226c0,0,7.574,14.953,9.944,22.289c3.059,9.469,5.112,20.726,5.112,20.726
							s12.908,17.689,17.751,23.139c10.779,12.13,23.974,26.478,31.972,29.064c2.568,0.83,9.792-1.351,9.792-7.012
							c0-9.228-21.23-93.017-30.252-104.666C2275.438,1516.329,2241.526,1546.226,2241.526,1546.226z"/>
						<path style="fill:#F47458;" d="M2227.134,629.365c0,0-4.274,10.497-14.472,17.145c-10.197,6.647-32.667,5.386-32.667,5.386
							L2227.134,629.365z"/>
					</g>
					<g>
						<g>
							<g>
								<path style="fill:#E3E3E3;" d="M2261.383,613.409l26.743-13.093c8.924-4.44,12.559-15.275,8.119-24.199l-0.458-0.92
									c-4.44-8.924-15.275-12.559-24.199-8.119l-26.743,13.093L2261.383,613.409z"/>
								<path style="fill:#F0F0F0;" d="M2289.841,568.363c2.452,1.681,4.527,3.984,5.945,6.835l0.458,0.919
									c4.44,8.924,0.806,19.759-8.118,24.199l-26.743,13.092l-8.269-16.618l26.743-13.093
									C2285.931,580.676,2289.546,574.691,2289.841,568.363z"/>
								<polygon style="fill:#FF3B3B;" points="1579.016,947.197 2261.382,613.409 2244.845,580.172 1562.479,913.96 
									1555.608,937.887 								"/>
								<polygon style="fill:#E0E0E0;" points="1570.747,930.578 2253.114,596.79 2261.382,613.409 1579.016,947.197 								"/>
								<path style="fill:#FFFFFF;" d="M1535.571,954.484l43.446-7.287c9.654-7.399,6.788-18.184-9.656-18.983
									c-9.816-0.477,10.815-19.263-6.881-14.254l-32.015,30.26L1535.571,954.484z"/>
								<path style="fill:#B3B3B3;" d="M2257.313,617.354l6.937-3.451c0.689-0.343,0.97-1.18,0.627-1.869l-16.828-33.82
									c-0.343-0.689-1.18-0.97-1.869-0.627l-6.937,3.451c-0.689,0.343-0.97,1.18-0.627,1.869l16.828,33.82
									C2255.787,617.417,2256.624,617.697,2257.313,617.354z"/>
							</g>
							<path style="fill:#FF3B3B;" d="M1517.672,959.144l17.899-4.659c1.975-3.821,0.273-7.243-5.108-10.265l-14.511,11.468
								c-0.732,0.578-0.958,1.591-0.543,2.426l0,0C1515.825,958.949,1516.769,959.379,1517.672,959.144z"/>
						</g>
					</g>
				</g>
				<g>
					<path style="fill:#F7A491;" d="M1898.311,792.983c-1.325-0.846-14.451-4.535-12.587-9.693
						c2.076-5.747,16.544-2.333,25.766,1.266C1909.744,789.43,1905.643,797.663,1898.311,792.983z"/>
				</g>
				<path style="fill:#F7A491;" d="M1846.644,769.987c0.399-0.1,7.15-2.133,7.602-3.906c0.114-0.446,1.36-1.466,2.701-2.073
					c0.152-0.069,4.087-0.762,3.998-2.59c-0.042-0.868,2.606-3.12,3.4-3.281c5.235-1.066,10.478,6.588,10.478,6.588
					s11.682,13.162,3.638,14.485c-1.304,0.215-2.956-0.392-4.72-1.509c1.916,2.978,2.666,5.856-0.894,6.525
					c-1.631,0.307-3.898-0.683-6.292-2.353c1.924,2.83,2.65,5.521-0.752,6.232c-3.22,0.673-9.369-3.622-14.016-8.206l-7.657-7.1
					C1844.708,771.371,1845.748,770.211,1846.644,769.987z"/>
			</g>
			<path style="fill:#F7A491;" d="M1884.526,794.178c4.811-2.908,12.754-3.02,12.754-3.02l5.258,5.258l-27.995,10.959
				C1874.543,807.375,1879.716,797.087,1884.526,794.178z"/>
			<path style="fill:#F7A491;" d="M2177.69,654.714c-3.087-12.326-5.638-19.978-4.942-21.138c1.159-1.623,10.648,3.889,16.57,17.249
				s5.923,13.36,5.923,13.36C2185.734,670.446,2180.778,667.041,2177.69,654.714z"/>
		</g>
	</g>
</g>
</svg>
